<svg width="200" height="220" viewBox="0 0 200 220" xmlns="http://www.w3.org/2000/svg" role="img" aria-label="Salo the carrot mascot">
  <defs>
    <linearGradient id="saloBodyGrad-u12" x1="30%" y1="0%" x2="80%" y2="100%">
      <stop offset="0%" stop-color="#FFC15C"/>
      <stop offset="55%" stop-color="#FF9F3D"/>
      <stop offset="100%" stop-color="#F2762E"/>
    </linearGradient>
    <linearGradient id="saloLeafGrad-u12" x1="0%" y1="0%" x2="100%" y2="100%">
      <stop offset="0%" stop-color="#8DE28A"/>
      <stop offset="100%" stop-color="#4CAF50"/>
    </linearGradient>
  </defs>

  
  <ellipse cx="42" cy="150" rx="11" ry="17" fill="url(#saloBodyGrad-u12)" transform="rotate(18 42 150)"/><ellipse cx="150" cy="122" rx="11" ry="16" fill="url(#saloBodyGrad-u12)" transform="rotate(-25 150 122)"/>
     <circle cx="163" cy="104" r="9" fill="url(#saloBodyGrad-u12)"/>

  <!-- legs -->
  <ellipse cx="82" cy="206" rx="10" ry="9" fill="url(#saloBodyGrad-u12)"/>
  <ellipse cx="118" cy="206" rx="10" ry="9" fill="url(#saloBodyGrad-u12)"/>

  <!-- leaves -->
  <g>
    <path d="M100,58 C94,38 96,18 100,4 C104,18 106,38 100,58 Z" fill="url(#saloLeafGrad-u12)"/>
    <path d="M100,58 C82,44 66,32 52,22 C64,32 82,42 100,58 Z" fill="url(#saloLeafGrad-u12)"/>
    <path d="M100,58 C118,44 134,32 148,22 C136,32 118,42 100,58 Z" fill="url(#saloLeafGrad-u12)"/>
  </g>

  <!-- body -->
  <path d="M100,56 C140,56 158,86 154,122 C150,160 132,192 110,206 C104,210 96,210 90,206
           C68,192 50,160 46,122 C42,86 60,56 100,56 Z" fill="url(#saloBodyGrad-u12)"/>

  <!-- glossy highlight -->
  <ellipse cx="76" cy="92" rx="20" ry="30" fill="#FFFFFF" opacity=".28" transform="rotate(-18 76 92)"/>

  
    
    <ellipse class="salo-eye" cx="78" cy="118" rx="16" ry="20" fill="#20303B"/>
    <ellipse class="salo-eye" cx="122" cy="118" rx="16" ry="20" fill="#20303B"/>
    <circle cx="78" cy="118" r="7" fill="#0B1015"/>
    <circle cx="122" cy="118" r="7" fill="#0B1015"/>
    <circle cx="75" cy="114" r="2.4" fill="#fff" opacity=".9"/>
    <circle cx="119" cy="114" r="2.4" fill="#fff" opacity=".9"/>
    
  <path class="salo-mouth" d="M76,150 Q100,176 124,150 Q100,168 76,150 Z" fill="#20303B"/>
              <path d="M84,156 Q100,166 116,156" fill="#F97364" opacity=".8"/>
  
</svg>
